<svg id="Layer_5" data-name="Layer 5" xmlns="http://www.w3.org/2000/svg" viewBox="0 0 512 512"><defs><style>.cls-1{fill:#0a1e3a;}</style></defs><title>Icons</title><path class="cls-1" d="M416,496.21H96a37.91,37.91,0,0,1-37.87-37.87V53.66A37.91,37.91,0,0,1,96,15.79H416a37.91,37.91,0,0,1,37.87,37.87V458.34A37.91,37.91,0,0,1,416,496.21ZM96,35.4A18.28,18.28,0,0,0,77.76,53.66V458.34A18.28,18.28,0,0,0,96,476.6H416a18.28,18.28,0,0,0,18.26-18.26V53.66A18.28,18.28,0,0,0,416,35.4Z"/><path class="cls-1" d="M458.63,479.61a5.8,5.8,0,0,1-.86.07H436.67a5.82,5.82,0,0,1-.87-.07H388.13V463.09c0-60.09-40.36-110.85-95.37-126.82a66.06,66.06,0,1,0-73.51,0c-55,16-95.37,66.73-95.37,126.82v16.52H74.32v-.25c-5.18.18-10.67.71-15.85,0a4.79,4.79,0,0,1-.67.21v.05h-.32a5.41,5.41,0,0,1-1.73,0H0v16.52H512V479.61ZM296,354.77c2.64,1,5.24,2,7.79,3.19l-5.06,55.69-31-25.86Zm-40,21.31-22.59-26.36a114.76,114.76,0,0,1,45.19,0ZM209.37,264.82a49.47,49.47,0,0,1,93.29.07H289.59a48,48,0,0,1-26.7-8.08L246.68,246l-4.78,4.79a47.78,47.78,0,0,1-32.54,14Zm-2.92,16.59h1.42a64.18,64.18,0,0,0,40.62-14.34l5.24,3.48a64.46,64.46,0,0,0,35.86,10.86h16a49.55,49.55,0,0,1-99.1,0ZM216,354.77h0l28.3,33-31,25.86-5.06-55.69C210.74,356.79,213.34,355.74,216,354.77Zm7.75,124.84H140.39V463.09a115.56,115.56,0,0,1,52-96.45l7.26,79.82,29.68-24.73Zm16.59,0,7.06-72.9,8.62-7.18,8.62,7.18,7.06,72.9Zm131.3,0H288.27l-5.6-57.86,29.68,24.73,7.26-79.82a115.55,115.55,0,0,1,52,96.44Z"/><rect class="cls-1" x="118.9" y="78.72" width="63.57" height="63.57" rx="14.17" ry="14.17"/><rect class="cls-1" x="329.53" y="78.72" width="63.57" height="63.57" rx="14.17" ry="14.17"/><rect class="cls-1" x="118.9" y="236.29" width="63.57" height="63.57" rx="14.17" ry="14.17"/><rect class="cls-1" x="329.53" y="236.29" width="63.57" height="63.57" rx="14.17" ry="14.17"/><path class="cls-1" d="M147.58,402.58C152.71,391.38,160,380,170.7,373.5a14.2,14.2,0,0,0-2.4-.22H133.07a14.17,14.17,0,0,0-14.17,14.17v35.23a14.17,14.17,0,0,0,14.17,14.17h3.13A187.26,187.26,0,0,1,147.58,402.58Z"/><path class="cls-1" d="M378.93,373.28H343.7c-.25,0-.5,0-.74,0,7,9.6,14,19.2,19.8,29.58,6,10.69,8.6,22.27,11.85,33.95h4.32a14.17,14.17,0,0,0,14.17-14.17V387.45A14.17,14.17,0,0,0,378.93,373.28Z"/></svg>