<svg id="Layer_5" data-name="Layer 5" xmlns="http://www.w3.org/2000/svg" viewBox="0 0 512 512"><defs><style>.cls-1{fill:#0a1e3a;}</style></defs><title>Icons</title><g id="User_1_Female_2_Male" data-name="User 1 Female 2 Male"><g id="Outline"><path class="cls-1" d="M48.82,224.13a8,8,0,0,0-8,8v79.68a8,8,0,0,0,15.94,0V232.1A8,8,0,0,0,48.82,224.13Z"/><path class="cls-1" d="M120.54,208.19a8,8,0,0,0-8-8,31.89,31.89,0,0,1-31.82-30.13l15.89-3.18V150.34a57.83,57.83,0,0,0,31.87-.35v10.38a8,8,0,1,0,15.94,0V144.44a8,8,0,0,0-.25-1.95,54.63,54.63,0,0,0,21.22-28.6l.11-.35,8.3-38.36a60.56,60.56,0,0,0-12.39-50.8,64,64,0,0,0-98.92,0A60.58,60.58,0,0,0,50.15,75.23l.47,2.17a.43.43,0,0,0,0,.08l7.73,35.71.19.72A54.65,54.65,0,0,0,80.8,143.2a8,8,0,0,0-.11,1.25v9.4l-9.55,1.91h0L33,163.38A40,40,0,0,0,1,202.45V311.78a8,8,0,0,0,15.94,0V202.45A24,24,0,0,1,36.17,179L65,173.24a47.83,47.83,0,0,0,47.56,42.92A8,8,0,0,0,120.54,208.19ZM74.9,34.42a48.1,48.1,0,0,1,74.17,0,45.16,45.16,0,0,1,9.34,20A42.28,42.28,0,0,0,146.21,49l-2.58-.58-2.42,1.07c-.16.07-16.59,7.28-28.64,7.28s-28.48-7.21-28.64-7.28l-2.42-1.08L78.93,49a42.8,42.8,0,0,0-13.52,6.29A45,45,0,0,1,74.9,34.42Zm-1,75L66.8,76.81A26.28,26.28,0,0,1,80.33,65.27c6,2.38,20.15,7.46,32.24,7.46s26.24-5.07,32.23-7.46a26.87,26.87,0,0,1,12.68,10.1l-7.37,34.06c-5.29,16.19-20.57,27-38.13,27s-32.84-10.86-38.12-27Z"/><path class="cls-1" d="M479,163.38l-38.06-7.61h0l-9.55-1.91v-9.4a8,8,0,0,0-.11-1.25,54.65,54.65,0,0,0,22.25-29.3l.11-.35,7.82-36.13h0l.48-2.23a60.56,60.56,0,0,0-12.39-50.8,64,64,0,0,0-98.92,0,60.58,60.58,0,0,0-12.38,50.85l8.22,37.95.19.72a54.63,54.63,0,0,0,21.22,28.6,8,8,0,0,0-.25,2v15.94a8,8,0,1,0,15.94,0V150a57.83,57.83,0,0,0,31.87.35v16.57l15.89,3.18a31.89,31.89,0,0,1-31.82,30.13,8,8,0,0,0,0,15.94A47.83,47.83,0,0,0,447,173.24L475.83,179A24,24,0,0,1,495,202.45V311.78a8,8,0,1,0,15.94,0V202.45A40,40,0,0,0,479,163.38Zm-116-129a48.1,48.1,0,0,1,74.17,0,45.08,45.08,0,0,1,9.49,20.89A42.81,42.81,0,0,0,433.07,49l-2.58-.58-2.42,1.07c-.16.07-16.59,7.28-28.64,7.28S371,49.58,370.79,49.51l-2.42-1.08-2.58.59a42.25,42.25,0,0,0-12.19,5.42A45.1,45.1,0,0,1,362.93,34.42ZM400,136.48c-17.56,0-32.84-10.86-38.13-27l-7.37-34.06a26.59,26.59,0,0,1,12.67-10.1c6,2.38,20.15,7.46,32.24,7.46s26.26-5.08,32.24-7.46a26.26,26.26,0,0,1,13.54,11.54l-7.06,32.62C432.86,125.62,417.58,136.48,400,136.48Z"/><path class="cls-1" d="M463.18,224.13a8,8,0,0,0-8,8v79.68a8,8,0,0,0,15.94,0V232.1A8,8,0,0,0,463.18,224.13Z"/><path class="cls-1" d="M370.53,391.9l-68.28-13.66a8,8,0,0,1-6.41-7.81v-15a71.7,71.7,0,0,0,31.87-59.6v-8a8,8,0,0,0-15.94,0v8a55.78,55.78,0,0,1-111.56,0v-8a8,8,0,0,0-15.94,0v8a71.7,71.7,0,0,0,31.87,59.6v15a8,8,0,0,1-6.41,7.81L141.47,391.9a55.93,55.93,0,0,0-44.84,54.7V503a8,8,0,0,0,15.94,0V446.59a40,40,0,0,1,32-39.07l55.62-11.12v9.4c0,36,49.88,63.25,52,64.39l3.77,2,3.77-2c2.12-1.14,52-28.36,52-64.39v-9.4l55.62,11.12a40,40,0,0,1,32,39.07V503a8,8,0,0,0,15.94,0V446.59A55.93,55.93,0,0,0,370.53,391.9Zm-74.69,13.91c0,20-26,39.83-39.85,48.19-13.85-8.34-39.83-28.13-39.83-48.19V392.94a24,24,0,0,0,15.94-22.51v-7a71.55,71.55,0,0,0,47.81,0v7a24,24,0,0,0,15.94,22.51Z"/><path class="cls-1" d="M152.41,479.11a8,8,0,0,0-8,8V503a8,8,0,0,0,15.94,0V487.08A8,8,0,0,0,152.41,479.11Z"/><path class="cls-1" d="M359.59,479.11a8,8,0,0,0-8,8V503a8,8,0,0,0,15.94,0V487.08A8,8,0,0,0,359.59,479.11Z"/><path class="cls-1" d="M176.32,232.1V248A16,16,0,0,0,192.25,264H319.75A16,16,0,0,0,335.68,248V232.1a8,8,0,0,0-15.94,0V248H192.25V232.1a8,8,0,0,0-15.94,0Z"/><path class="cls-1" d="M260.42,488.43a8,8,0,0,0-6-1.19,7.86,7.86,0,0,0-1.49.45,8,8,0,0,0-1.37.74,7.56,7.56,0,0,0-2.2,2.2,8,8,0,0,0-.74,1.37,7.89,7.89,0,0,0-.45,1.49,7.65,7.65,0,0,0,0,3.11,7.89,7.89,0,0,0,.45,1.49,8,8,0,0,0,.74,1.37,8.28,8.28,0,0,0,1,1.22,7.74,7.74,0,0,0,1.22,1,8,8,0,0,0,1.37.74,7.86,7.86,0,0,0,1.49.45,7.66,7.66,0,0,0,3.11,0,8.11,8.11,0,0,0,4.08-2.17,8.34,8.34,0,0,0,1-1.22,8,8,0,0,0,.74-1.37,7.82,7.82,0,0,0,.45-1.49,7.41,7.41,0,0,0,.16-1.55,8,8,0,0,0-2.33-5.64A8.3,8.3,0,0,0,260.42,488.43Z"/><path class="cls-1" d="M256,109.56A119.26,119.26,0,0,0,136.74,228.82v87.46a55.72,55.72,0,0,0,55.65,55.65h8V356h-8a39.8,39.8,0,0,1-39.75-39.75V228.82a103.36,103.36,0,0,1,206.71,0v87.46A39.8,39.8,0,0,1,319.6,356h-8v15.9h8a55.72,55.72,0,0,0,55.65-55.65V228.82A119.26,119.26,0,0,0,256,109.56Z"/></g></g></svg>