<svg id="Layer_5" data-name="Layer 5" xmlns="http://www.w3.org/2000/svg" viewBox="0 0 512 512"><defs><style>.cls-1{fill:#0a1e3a;}</style></defs><title>Icons</title><path class="cls-1" d="M264.26,363.35a8.26,8.26,0,0,1,8.26,8.26H289a24.8,24.8,0,0,0-24.77-24.77V330.32H247.74v16.52H223v24.77a24.8,24.8,0,0,0,24.77,24.77h16.52a8.26,8.26,0,0,1,8.26,8.26v8.26H247.74a8.26,8.26,0,0,1-8.26-8.26H223a24.8,24.8,0,0,0,24.77,24.77v16.52h16.52V429.42H289V404.65a24.8,24.8,0,0,0-24.77-24.77H247.74a8.26,8.26,0,0,1-8.26-8.26v-8.26Z"/><path class="cls-1" d="M462.45,479V297.29H49.55V479ZM66.06,421.9a49.61,49.61,0,0,1,40.55,40.55H66.06Zm339.32,40.55a49.61,49.61,0,0,1,40.55-40.55v40.55Zm40.55-108.1a49.61,49.61,0,0,1-40.55-40.55h40.55ZM388.7,313.81A66.12,66.12,0,0,0,445.94,371v34.18a66.12,66.12,0,0,0-57.24,57.24H308.06a90.62,90.62,0,0,0,0-148.65ZM256,462.45a74.32,74.32,0,1,1,74.32-74.32A74.4,74.4,0,0,1,256,462.45Zm-90.84-74.32a90.75,90.75,0,0,0,38.77,74.32H123.29a66.12,66.12,0,0,0-57.24-57.24V371a66.12,66.12,0,0,0,57.24-57.24h80.64A90.78,90.78,0,0,0,165.16,388.13Zm-58.55-74.32a49.61,49.61,0,0,1-40.55,40.55V313.81Z"/><path class="cls-1" d="M512,231.23H495.48V214.71a99.16,99.16,0,0,0-65.8-93.22,57.81,57.81,0,1,0-66.63,0,98.14,98.14,0,0,0-31.23,18.18,107,107,0,0,0-37.69-19.71,66.07,66.07,0,1,0-76.25,0,107.08,107.08,0,0,0-37.7,19.72A98.14,98.14,0,0,0,149,121.46a57.8,57.8,0,1,0-66.63,0,99.16,99.16,0,0,0-65.8,93.22v16.52H0v49.55H16.52V512h479V280.77H512Zm-33-16.52v16.52H454.19V181.68H437.68v49.55H371.61V223a106.85,106.85,0,0,0-27.85-71.89,81.69,81.69,0,0,1,33.36-16.61L371.27,193l25.11,25.13L421.51,193l-5.85-58.52A82.67,82.67,0,0,1,479,214.71Zm-165.16-33v49.55H275.49l28.13-90A90.86,90.86,0,0,1,355.1,223v8.26H330.32V181.68Zm-132.13,0v49.55H156.9V223a90.87,90.87,0,0,1,51.48-81.75l28.13,90H198.19V181.68Zm42.19-46.26a89.87,89.87,0,0,1,12.35-2.48l-3.75,30Zm29.94,95.81L244.36,201l8.6-68.86H259l8.6,68.86-9.45,30.24Zm25.72-68.29-3.75-30a89.51,89.51,0,0,1,12.35,2.48Zm116.86-30.81c.83,0,1.63.1,2.45.12l5.46,54.61-7.91,7.91-7.91-7.91,5.46-54.61C394.75,132.23,395.56,132.13,396.39,132.13ZM355.1,74.32a41.29,41.29,0,1,1,41.29,41.29A41.34,41.34,0,0,1,355.1,74.32ZM206.45,66.06A49.55,49.55,0,1,1,256,115.61,49.6,49.6,0,0,1,206.45,66.06Zm-90.84,66.06A83.3,83.3,0,0,1,132,133.74a16.42,16.42,0,0,1-32.7,0A82.07,82.07,0,0,1,115.61,132.13ZM74.32,74.32a41.29,41.29,0,1,1,41.29,41.29A41.34,41.34,0,0,1,74.32,74.32ZM33,214.71a82.7,82.7,0,0,1,50.22-76,33,33,0,0,0,64.73,0,82.15,82.15,0,0,1,20.27,12.35A106.85,106.85,0,0,0,140.39,223v8.26H74.32V181.68H57.81v49.55H33ZM479,495.48H33V280.77H479Zm16.52-231.23h-479V247.74h479Z"/></svg>