<svg id="Layer_5" data-name="Layer 5" xmlns="http://www.w3.org/2000/svg" viewBox="0 0 512 512"><defs><style>.cls-1{fill:#0a1e3a;}</style></defs><title>Icons</title><g id="_Group_" data-name="&lt;Group&gt;"><g id="_Group_2" data-name="&lt;Group&gt;"><path id="_Compound_Path_" data-name="&lt;Compound Path&gt;" class="cls-1" d="M509,215.34a10,10,0,0,0-9-2.73L413.81,230a10,10,0,0,0-5.1,16.87l11.66,11.66-45.76,45.76-35.42-35.42a10,10,0,0,0-14.14,0l-43.47,43.47,16.3-58.59a46.95,46.95,0,0,0-28.72-56.5l13-37.23c3.6.32,7.18.48,10.73.48a124.33,124.33,0,0,0,79.27-28.65l2.38-2a27.85,27.85,0,0,0,4.56-38.55,27.74,27.74,0,0,0-39.69-4.39l-2.71,2.25a68.85,68.85,0,0,1-13,8.5c-15.42,7.78-34.67,4.31-47.47-8.35a45.7,45.7,0,1,0-50.39-16.8A52.09,52.09,0,0,0,199,87.63a10,10,0,0,0-1.18,1.21,135.65,135.65,0,0,1-68,44.91,27.65,27.65,0,0,0-16.46,13L92.95,126.29a23,23,0,0,0-32.52,0L33.6,153.11h0L6.78,179.93a23,23,0,0,0,0,32.53l73.9,73.9a23,23,0,0,0,32.53,0L141,258.59l-13.17,34.53a10,10,0,1,0,18.69,7.13l32.8-86h73.43a26.89,26.89,0,0,1,25.9,34.09L255.9,330a8.55,8.55,0,0,1-8.21,6.24,8.53,8.53,0,0,1-8.42-9.86l12.09-76a10,10,0,0,0-9.88-11.57H217.77a10,10,0,0,0-8.92,5.49c-.58,1.15-58.6,115.87-78.15,154.63a10.27,10.27,0,0,1-10.57,5.5l-.47-.06a9.78,9.78,0,0,1-7.83-13.18L118,375a10,10,0,1,0-18.69-7.13L93.14,384A29.78,29.78,0,0,0,117,424.15l.47.06a30.33,30.33,0,0,0,31.12-16.31c17.08-33.86,63.52-125.7,75.37-149.12h5.84l-10.25,64.44A28.51,28.51,0,0,0,239,354.86L127.62,466.25a10,10,0,0,0,0,14.14l28.68,28.68a10,10,0,0,0,14.14,0l55.14-55.14a10,10,0,1,0-14.14-14.14l-48.07,48.07-14.54-14.54L332.12,290l35.42,35.42a10,10,0,0,0,14.14,0l59.9-59.9a10,10,0,0,0,0-14.14L436,245.88l53.14-10.7-10.7,53.14-8.23-8.23a10,10,0,0,0-14.14,0l-81.51,81.51-35.42-35.42a10,10,0,0,0-14.14,0l-57,57a10,10,0,0,0,14.14,14.14l50-50,35.42,35.42a10,10,0,0,0,14.14,0l81.51-81.51,14.35,14.35a10,10,0,0,0,16.87-5.1l17.34-86.18A10,10,0,0,0,509,215.34ZM262.84,20a25.65,25.65,0,1,1-25.65,25.65A25.68,25.68,0,0,1,262.84,20ZM163.89,197.23l-12.17-12.17q8.67-2.83,17-6.46Zm-33.75-34.69a7.75,7.75,0,0,1,5.3-9.58A156,156,0,0,0,181,131.37l-5.65,21.71a172.45,172.45,0,0,1-35.65,14.76c-.23.07-.47.12-.71.17a7.68,7.68,0,0,1-5.24-.9l-2.93-2.93A7.61,7.61,0,0,1,130.15,162.55ZM74.56,140.43a3,3,0,0,1,4.24,0l36.45,36.45a27.49,27.49,0,0,0,6,6l31.47,31.47a3,3,0,0,1,0,4.24L133,238.32l-22-22,4.18-4.18a10,10,0,0,0,0-14.14L92.66,175.52a10,10,0,0,0-14.14,0l-4.18,4.18L54.81,160.18Zm13.69,70.39a3.75,3.75,0,0,1-5.31,0h0l-3.06-3.06a3.75,3.75,0,0,1,0-5.31l5.71-5.71L94,205.1Zm10.81,61.4a3,3,0,0,1-4.24,0l-73.9-73.9a3,3,0,0,1,0-4.24l19.75-19.75,20.46,20.46a23.78,23.78,0,0,0,4.61,27.11L68.8,225h0a23.78,23.78,0,0,0,27.11,4.61l22.9,22.9Zm142.83-78H185.33l20.54-79a32.06,32.06,0,0,1,31-24,31.7,31.7,0,0,1,23.47,10.23c18.79,20.24,48.57,26,72.43,13.94a88.78,88.78,0,0,0,16.74-11l2.71-2.25a7.74,7.74,0,0,1,11.08,1.23,8,8,0,0,1-1.52,10.94l-2.38,2A103.72,103.72,0,0,1,277,139.2a10,10,0,0,0-11,6.58l-17,48.48Z"/><path id="_Path_" data-name="&lt;Path&gt;" class="cls-1" d="M247,408.77A10,10,0,1,0,254,411.7,10.07,10.07,0,0,0,247,408.77Z"/><path id="_Path_2" data-name="&lt;Path&gt;" class="cls-1" d="M122.88,344.11a10,10,0,1,0-7.08-2.93A10.07,10.07,0,0,0,122.88,344.11Z"/></g></g></svg>