<svg id="Layer_5" data-name="Layer 5" xmlns="http://www.w3.org/2000/svg" viewBox="0 0 512 512"><defs><style>.cls-1{fill:#0a1e3a;}</style></defs><title>Icons</title><path class="cls-1" d="M256,133.24l60.79-50.66h79.59V0H198.19V82.58H256ZM214.71,66.06V16.52H379.87V66.06H310.82L272.52,98V66.06Z"/><path class="cls-1" d="M231.23,33h16.52V49.55H231.23Z"/><path class="cls-1" d="M264.26,33h66.06V49.55H264.26Z"/><path class="cls-1" d="M346.84,33h16.52V49.55H346.84Z"/><path class="cls-1" d="M420.38,495.48l-6.68-66.85a57.84,57.84,0,0,0,48.75-57V264.26h-33V252.85a29.71,29.71,0,0,0-16.09-26.48,49.35,49.35,0,0,0,16.09-36.44V173.42a49.55,49.55,0,0,0-99.1,0v16.52A49.59,49.59,0,0,0,363,236.45l-44.32,44.32H272.33a33.12,33.12,0,0,0-23.77-29.6l-33.85-9.66V226.77a49.38,49.38,0,0,0,16.52-36.83V173.42a49.55,49.55,0,1,0-99.1,0v16.52a49.4,49.4,0,0,0,16.52,36.83v14.76l-33.85,9.66a33.16,33.16,0,0,0-24,31.76v30.86h-33v49.55H74.32V495.48H0V512H512V495.48ZM346.84,363.35V325.48L405.35,267a25.87,25.87,0,0,0,7.31-15.84,13.44,13.44,0,0,1,.24,1.72V355.1a24.81,24.81,0,0,1-24.77,24.77H322.06V363.35Zm-24.77,66.06h42.08l6.6,66.06H322.06Zm58.67,0h16.44l6.6,66.06H387.34Zm48.68-74.32V280.77h16.52v90.84a41.34,41.34,0,0,1-41.29,41.29H322.06V396.39h66.06A41.34,41.34,0,0,0,429.42,355.1ZM346.84,189.94V173.42a33,33,0,0,1,66.06,0v16.52a33,33,0,0,1-66.06,0ZM325.48,297.29l55.1-55.1a9.26,9.26,0,0,1,13.1,13.1l-58.52,58.52H247.74a8.26,8.26,0,0,1,0-16.52ZM148.65,173.42a33,33,0,0,1,66.06,0v16.52a33,33,0,0,1-66.06,0Zm33,66.06a49.31,49.31,0,0,0,16.52-2.89v8.87c-2,3.16-7.74,10.54-16.52,10.54s-14.47-7.37-16.52-10.54v-8.87A49.31,49.31,0,0,0,181.68,239.48Zm-74.32,43.46a16.59,16.59,0,0,1,12-15.88l34-9.72c4.79,6.24,14.11,15.17,28.33,15.17s23.54-8.93,28.33-15.18l34,9.72a16.46,16.46,0,0,1,11.62,13.71h-7.9A24.81,24.81,0,0,0,223,305.54a24.43,24.43,0,0,0,1.52,8.26H107.35Zm-33,47.38h256v16.52h-256Zm16.52,66.06h24.77V379.87H90.84V363.35H305.55v16.52H132.13v16.52H305.55v99.1H285.88l-16.52-33H127l-16.52,33H90.84Zm176.57,99.1H129L137.23,479H259.15Z"/></svg>