<svg id="Layer_5" data-name="Layer 5" xmlns="http://www.w3.org/2000/svg" viewBox="0 0 512 512"><defs><style>.cls-1{fill:#0a1e3a;}</style></defs><title>Icons</title><path class="cls-1" d="M461.06,162.88a27.62,27.62,0,0,0-16.8-18.59A52.37,52.37,0,0,0,462,105V75a52.5,52.5,0,0,0-105,0v30a52.38,52.38,0,0,0,17.74,39.3,27.62,27.62,0,0,0-16.8,18.59,57.49,57.49,0,0,0-.45,114.17A52.36,52.36,0,0,0,372,306.69v159.9l-24.87,8.29a7.5,7.5,0,1,0,4.74,14.23l30-10A7.5,7.5,0,0,0,387,472V317.42a52.41,52.41,0,0,0,45,0V466.59l-24.87,8.29a7.5,7.5,0,1,0,4.74,14.23l30-10A7.5,7.5,0,0,0,447,472V306.69a52.36,52.36,0,0,0,14.51-29.64,57.49,57.49,0,0,0-.45-114.17ZM357,261.82a42.49,42.49,0,0,1,0-83.65ZM372,75a37.5,37.5,0,0,1,75,0v2.5H431.86a30,30,0,0,0-44.72,0H372Zm0,30V92.5h18.79A7.5,7.5,0,0,0,397,89.17a15,15,0,0,1,25,0,7.5,7.5,0,0,0,6.23,3.33H447V105a37.5,37.5,0,0,1-75,0Zm49.75,52.5L409.5,179.56,397.25,157.5Zm-12.25,150a37.56,37.56,0,0,1-36.75-30h73.49A37.56,37.56,0,0,1,409.5,307.5Zm37.5-45H417V225a7.5,7.5,0,1,0-15,0V262.5H372V170a12.51,12.51,0,0,1,8.46-11.82l22.48,40.46a7.5,7.5,0,0,0,13.11,0l22.48-40.46A12.51,12.51,0,0,1,447,170v92.5Zm15-.68V178.18a42.49,42.49,0,0,1,0,83.65Z"/><path class="cls-1" d="M274.5,50.5H7.5A7.5,7.5,0,0,0,0,58V164a7.5,7.5,0,0,0,15,0V65.5H267v197H228.5v-49a7.5,7.5,0,0,0-2.36-5.46L188.5,172.55V155.68c0-.07,0-.15,0-.22s0-.28,0-.43,0-.21,0-.32,0-.29-.07-.43l-.06-.29c0-.15-.07-.29-.12-.44l-.09-.27q-.08-.22-.16-.44l-.11-.25c-.06-.14-.13-.28-.21-.42l-.14-.26-.24-.38-.19-.27-.25-.32-.24-.28-.11-.13-.17-.16-.15-.15-40-37.69a7.5,7.5,0,0,0-10.29,0l-40,37.69-.15.15-.17.16-.11.13-.24.28-.25.32-.19.27-.24.38-.14.26c-.07.14-.14.28-.21.42l-.11.25c-.06.15-.11.29-.16.44l-.08.27c0,.15-.08.29-.11.44s0,.2-.06.29,0,.29-.07.43,0,.21,0,.32,0,.28,0,.43,0,.15,0,.22v42L55.86,233.13a7.5,7.5,0,0,0-2.36,5.46V262.5H15V194a7.5,7.5,0,0,0-15,0V482a7.5,7.5,0,0,0,7.5,7.5h267A7.5,7.5,0,0,0,282,482V58A7.5,7.5,0,0,0,274.5,50.5Zm-86,142.66,25,23.55V262.5h-25ZM141,128.3l29.06,27.38L141,183.07l-29.06-27.38Zm-32.5,44.75,25,23.55v11.76a7.5,7.5,0,0,0,15,0V196.61l25-23.55V262.5h-25V238.37a7.5,7.5,0,0,0-15,0V262.5h-25Zm-40,68.78,25-23.55V262.5h-25ZM267,474.5H15v-167H267Zm0-182H15v-15H267Z"/><path class="cls-1" d="M244.5,322.5H141a7.5,7.5,0,0,0-7.5,7.5v45a7.5,7.5,0,0,0,7.5,7.5H244.5A7.5,7.5,0,0,0,252,375V330A7.5,7.5,0,0,0,244.5,322.5Zm-7.5,45H148.5v-30H237Z"/></svg>