<svg id="Layer_5" data-name="Layer 5" xmlns="http://www.w3.org/2000/svg" viewBox="0 0 512 512"><defs><style>.cls-1{fill:#0a1e3a;}</style></defs><title>Icons</title><path class="cls-1" d="M170.67,0a128,128,0,0,0-128,128v93.87A59.8,59.8,0,0,0,102.4,281.6h8.53V264.53H102.4a42.72,42.72,0,0,1-42.67-42.67V128a110.93,110.93,0,0,1,221.87,0v93.87a42.72,42.72,0,0,1-42.67,42.67H230.4V281.6h8.53a59.8,59.8,0,0,0,59.73-59.73V128A128,128,0,0,0,170.67,0Z"/><path class="cls-1" d="M70.32,402.17l6.24-9.82L62.15,383.2,55.91,393a85.06,85.06,0,0,0,3.52,96.28V512H76.5V486.4a8.53,8.53,0,0,0-1.87-5.33A68,68,0,0,1,70.32,402.17Z"/><path class="cls-1" d="M469.33,0H358.4a42.72,42.72,0,0,0-42.67,42.67V128a42.72,42.72,0,0,0,42.67,42.67h17.07V204.8a8.53,8.53,0,0,0,5.27,7.88,8.42,8.42,0,0,0,3.27.65,8.53,8.53,0,0,0,6-2.5l40.17-40.17h39.13A42.72,42.72,0,0,0,512,128V42.67A42.72,42.72,0,0,0,469.33,0Zm25.6,128a25.6,25.6,0,0,1-25.6,25.6H426.67a8.53,8.53,0,0,0-6,2.5l-28.1,28.1V162.13A8.53,8.53,0,0,0,384,153.6H358.4A25.6,25.6,0,0,1,332.8,128V42.67a25.6,25.6,0,0,1,25.6-25.6H469.33a25.6,25.6,0,0,1,25.6,25.6Z"/><rect class="cls-1" x="358.4" y="42.67" width="59.73" height="17.07"/><rect class="cls-1" x="435.2" y="42.67" width="34.13" height="17.07"/><rect class="cls-1" x="358.4" y="76.8" width="110.93" height="17.07"/><rect class="cls-1" x="358.4" y="110.93" width="59.73" height="17.07"/><path class="cls-1" d="M285.42,393l-6.24-9.83-14.41,9.15,6.24,9.83a68,68,0,0,1-4.31,78.89,8.53,8.53,0,0,0-1.87,5.33V512H281.9V489.31A85.06,85.06,0,0,0,285.42,393Z"/><path class="cls-1" d="M503.47,290.13h-76.8a59.73,59.73,0,0,0-59.61,57.3l-25.72,46.3V358.4a59.8,59.8,0,0,0-59.73-59.73H250.41l-.23-.18-.15.18H230.4a17.07,17.07,0,0,1-17.07-17.07V261.52A85.34,85.34,0,0,0,256,187.73V119.47A85.51,85.51,0,0,0,245.76,79a8.53,8.53,0,0,0-11.09-3.67l-144.44,68a8.53,8.53,0,0,0-4.9,7.72v36.75A85.34,85.34,0,0,0,128,261.52V281.6a17.07,17.07,0,0,1-17.07,17.07H59.73A59.8,59.8,0,0,0,0,358.4V512H17.07V358.4a42.72,42.72,0,0,1,42.67-42.67H86.89L163.73,423.1a8.53,8.53,0,0,0,6.83,3.57h.11a8.53,8.53,0,0,0,6.83-3.41l81.07-107.52h23a42.72,42.72,0,0,1,42.67,42.67v68.27a8.53,8.53,0,0,0,16,4.14l40.23-72.41h48.92L346.21,512h19.41l83.23-153.6h3.41A59.8,59.8,0,0,0,512,298.67,8.53,8.53,0,0,0,503.47,290.13ZM102.4,187.73V156.4l131.76-62a68.27,68.27,0,0,1,4.77,25.07v68.27a68.27,68.27,0,1,1-136.53,0Zm68.45,216-26.33-36.8h54.07Zm40.64-53.86H132.27l-24.43-34.13h3.1a34.13,34.13,0,0,0,34.13-34.13V269.13a85.27,85.27,0,0,0,51.2,0V281.6a34.13,34.13,0,0,0,34.13,34.13h6.83Zm240.78-8.53H384.85a42.74,42.74,0,0,1,41.81-34.13h67.41A42.74,42.74,0,0,1,452.27,341.33Z"/></svg>